# xmcd
#
# Track frame offsets:
#	151
#	12819
#	26446
#	40928
#	54918
#	70119
#	86360
#	97953
#	111937
#	124915
#
# Disc length: 2028 seconds
#
# Revision: 1
# Processed by: cddbd v1.5.1PL0 Copyright (c) Steve Scherf et al.
# Submitted via: EasyCDDAExtractor 7.0.6.1
#
DISCID=7207ea0a
DTITLE=Various Artist - Cuba Social Club - Compay Segundo
DYEAR=1900
DGENRE=Blues
TTITLE0=Compay Segundo - Sera cuando tu digas
TTITLE1=La Sonora Matancera - Noche de Farra (No me aprietes)
TTITLE2=Chappotin y su Conjunto - Yo si como candela
TTITLE3=Los Guaracheros de Oriente - La cumbancha
TTITLE4=Sexteto Habanero - Alma Guajira
TTITLE5=Israel Kantor - El guayo de Catalina
TTITLE6=Cachao - Panparana
TTITLE7=Beny Moré - Maracaibo Oriental
TTITLE8=Compay Segundo - Baja y tapa la olla
TTITLE9=Enrique Jorrín - Que mal te etas portando
EXTD=
EXTT0=
EXTT1=
EXTT2=
EXTT3=
EXTT4=
EXTT5=
EXTT6=
EXTT7=
EXTT8=
EXTT9=
PLAYORDER=
